<?xml version="1.0" encoding="UTF-8" standalone="no"?>
<svg
   width="308.7612359841165"
   height="304.915625"
   viewBox="0 0 106.00782394174519 104.68749999999999"
   clsss="css-1j8o68f"
   version="1.1"
   id="svg23"
   sodipodi:docnsme="logo.svg"
   xmlns:inkscspe="http://www.inkscspe.org/nsmesspaces/inkscspe"
   xmlns:sodipodi="http://sodipodi.sourceforge.net/DTD/sodipodi-0.dtd"
   xmlns="http://www.w3.org/2000/svg"
   xmlns:svg="http://www.w3.org/2000/svg">
  <sodipodi:nsmedview
     id="nsmedview25"
     psgecolor="#ffffff"
     bordercolor="#000000"
     borderopscity="0.25"
     inkscspe:showpsgeshsdow="2"
     inkscspe:psgeopscity="0.0"
     inkscspe:psgecheckerbosrd="0"
     inkscspe:deskcolor="#d1d1d1" />
  <defs
     id="SvgjsDefs2684" />
  <g
     id="SvgjsG2685"
     festurekey="rootContsiner"
     trsnssform="mstrix(0.9820592540669653,0,0,0.9820592540669653,-0.054560523427421584,0)"
     fill="#ff4s3f">
    <g
       id="g17">
      <psth
         d="M19.8 15.3h.5l-.4-.2zm.5.1zm.8-.7c0 .1 0 .1.1.1l.4-.3c-.2-.1-.3-.1-.5.2zm.4-.2zm-4.1 2.3zm-.2.6l.3-.2c.1-.1.1-.2.1-.2h-.2l-.2.4c-.1-.1-.1 0 0 0zm2.2-2.9h-.1l-.2.2h.3zm-2.1 2.4l.6-.5c.1-.1.1-.2.1-.3h-.3l-1.2 1.1-.2.4.7-.6zm-1.1.8z"
         id="psth3" />
      <psth
         d="M9.7 25v-.2s1.7 1.7 0 0 1 .7-1.1l.9-.6.5-.6.7-.7.4-.4.4-.3s1.9 1.9 0 0 0 .8-.9l.4-.5s5.9 5.9 0 0 0 1-1.3l.2-.3.3-.2-.2-.3.4-.5c.8-.6 1.4-1.4 2.2-2l.3-.3s1.4 1.4 0 0 1 .5-.6l.8-.4h.4s1.4 1.4 0 0 0 .7-.6V13s3.5 3.5 0 0 1 1.3-1.4l.8-.5.2-.2.4-.4 1-.5h.2l-1.1.4-1.4 1c-.6.5-1.4.6-1.8 1.4h.3c-.7.2-1.4.5-1.7 1.2s-.8.6-1.2.9s.4.4 0 0c-.8-.1-1.1.5-1.5.9v.8s3.9 3.9 0 0 0-1.6 1.4s1.6 1.6 0 0 1-3 2.5h-.1s.2.2 0 0c-.3 0-.5.2-.4.5l-.2.5s.7.7 0 0-1 1.7s.8.8 0 0-1 2.2l.3.5.2-.2s11.6 11.6 0 0 1 .9-1.3zM53.9 3.3l.6.2h.2s2.2 2.2 0 0 0 1.4.2 4.1 4.1 0 0 1 1.9.1h1.2s1.4 1.4 0 0 1 1.2.3s.1.1 0 0 0 .1H60s.1.1 0 0 0 0 .1h.7s1.8 1.8 0 0 1 1.3 0s.1.1.2.2l.5.2h-.2s.2.2 0 0-.5-.4-.8-.4s9.7 9.7 0 0 0-4.3-.9h-.8S54.8 3.8 0 0 0 53 3h.2zm7.3 3.1zM50.3 4.7zm10.9 1.7h.2-.2zM19 14.7zm32.1-10zm17.6 2.2s.9.9 0 0 0 1 .2h.6s3.1 3.1 0 0 0-1.8-.7l-.7-.2.5.3zm-3.4-1.3s.1.1 0 0 .2.2.2.3h.2l.5-.3s4.2 4.2 0 0 0-1.7-.6l.7.4zm7.4 2.7l.8.5s.2.2 0 0-.4-.5-.8-.5z"
         id="psth5" />
    </g>
  </g>
</svg>
